<svg width="144" height="237" viewBox="0 0 144 237" fill="none" xmlns="http://www.w3.org/2000/svg">
<path d="M5.74329 70.8645C5.74329 66.402 9.36086 62.7844 13.8234 62.7844C18.2859 62.7844 21.9034 66.402 21.9034 70.8645V93.4887C21.9034 97.9512 18.2859 101.569 13.8234 101.569C9.36086 101.569 5.74329 97.9512 5.74329 93.4887V70.8645Z" fill="#4E71FF"/>
<path d="M34.8315 57.9364C34.8315 53.4739 38.4491 49.8563 42.9116 49.8563C47.3741 49.8563 50.9917 53.4739 50.9917 57.9364V93.4887C50.9917 97.9513 47.3741 101.569 42.9116 101.569C38.4491 101.569 34.8315 97.9513 34.8315 93.4887V57.9364Z" fill="#4E71FF"/>
<path d="M63.9199 32.0801C63.9199 27.6176 67.5375 24 72 24C76.4625 24 80.0801 27.6176 80.0801 32.0801V93.4887C80.0801 97.9512 76.4625 101.569 72 101.569C67.5375 101.569 63.9199 97.9512 63.9199 93.4887V32.0801Z" fill="#4E71FF"/>
<path d="M93.0081 45.0083C93.0081 40.5458 96.6256 36.9282 101.088 36.9282C105.551 36.9282 109.168 40.5458 109.168 45.0083V93.4888C109.168 97.9513 105.551 101.569 101.088 101.569C96.6256 101.569 93.0081 97.9513 93.0081 93.4888V45.0083Z" fill="#4E71FF"/>
<path d="M122.096 70.8645C122.096 66.402 125.714 62.7844 130.177 62.7844C134.639 62.7844 138.257 66.402 138.257 70.8645V93.4887C138.257 97.9512 134.639 101.569 130.177 101.569C125.714 101.569 122.096 97.9512 122.096 93.4887V70.8645Z" fill="#4E71FF"/>
<path d="M34.8315 116.113C34.8315 111.65 38.4491 108.033 42.9116 108.033C47.3741 108.033 50.9917 111.65 50.9917 116.113V119.345C50.9917 123.807 47.3741 127.425 42.9116 127.425C38.4491 127.425 34.8315 123.807 34.8315 119.345V116.113Z" fill="#4E71FF"/>
<path d="M93.0081 116.113C93.0081 111.65 96.6256 108.033 101.088 108.033C105.551 108.033 109.168 111.65 109.168 116.113V119.345C109.168 123.807 105.551 127.425 101.088 127.425C96.6256 127.425 93.0081 123.807 93.0081 119.345V116.113Z" fill="#4E71FF"/>
<path d="M105.728 154.508V186.106H99.8825V172.046H97.2555V185.551H91.4835V154.656H97.2555V166.126H99.8825V154.508H105.728ZM82.6405 179.298C83.9478 179.298 85.2675 179.2 86.5995 179.002C87.9562 178.805 89.0908 178.534 90.0035 178.188V183.516C89.1155 183.886 87.9685 184.158 86.5625 184.33C85.1812 184.528 83.7752 184.626 82.3445 184.626H74.8335V167.236H82.7885V160.576H74.8335V155.248H88.5975V172.49H80.6425V179.298H82.6405Z" fill="#4E71FF"/>
<path d="M70.5815 172.12H66.8815V186.106H60.6285V154.508H66.8815V166.052H70.5815V172.12ZM50.9715 178.891C52.4762 178.891 53.9685 178.768 55.4485 178.521C56.9532 178.25 58.1865 177.892 59.1485 177.448V183.072C58.2112 183.541 56.9532 183.911 55.3745 184.182C53.7959 184.478 52.2295 184.626 50.6755 184.626H38.2805V155.248H56.6695V160.983H44.5335V166.977H56.1145V172.675H44.5335V178.891H50.9715Z" fill="#4E71FF"/>
</svg>
